<svg t="1654410437191" class="icon" viewBox="0 0 1024 1024" version="1.1" xmlns="http://www.w3.org/2000/svg" p-id="3240" data-spm-anchor-id="a313x.7781069.0.i5" width="200" height="200"><path d="M785.33 878.49h-548.6c-90.53 0-164.19-73.65-164.19-164.19v-51.07c0-27 19.49-50.33 46.34-55.45 33.81-6.46 58.35-36.18 58.35-70.67s-24.54-64.21-58.34-70.67c-26.85-5.13-46.34-28.45-46.34-55.45V389c0-90.53 73.65-164.19 164.19-164.19h548.6c90.53 0 164.19 73.65 164.19 164.19v30.34c0 27.03-19.51 50.35-46.39 55.46-33.84 6.43-58.41 36.16-58.41 70.69s24.56 64.26 58.41 70.69c26.88 5.11 46.39 28.44 46.39 55.46v42.65c-0.02 90.54-73.67 164.2-164.2 164.2zM138.22 670.76v43.54c0 54.32 44.19 98.51 98.51 98.51h548.6c54.32 0 98.51-44.19 98.51-98.51v-35.12c-61.14-14.95-104.8-70.07-104.8-133.69 0-63.62 43.66-118.74 104.8-133.69v-22.81c0-54.32-44.19-98.51-98.51-98.51h-548.6c-54.32 0-98.51 44.19-98.51 98.51v14.47c61.08 14.99 104.68 70.09 104.68 133.65s-43.61 118.66-104.68 133.65z" fill="#cdcdcd" p-id="3241"></path><path d="M355.95 526.65c-18.14 0-32.84-14.7-32.84-32.84v-98.82c0-18.14 14.7-32.84 32.84-32.84s32.84 14.7 32.84 32.84v98.82c0 18.14-14.7 32.84-32.84 32.84zM355.95 741.15c-18.14 0-32.84-14.7-32.84-32.84v-95.1c0-18.14 14.7-32.84 32.84-32.84s32.84 14.7 32.84 32.84v95.1c0 18.14-14.7 32.84-32.84 32.84z" fill="#ea9518" p-id="3242" data-spm-anchor-id="a313x.7781069.0.i6" class="selected"></path></svg>