<?xml version="1.0" standalone="no"?><!DOCTYPE svg PUBLIC "-//W3C//DTD SVG 1.1//EN" "http://www.w3.org/Graphics/SVG/1.1/DTD/svg11.dtd"><svg t="1654398334311" class="icon" viewBox="0 0 1024 1024" version="1.1" xmlns="http://www.w3.org/2000/svg" p-id="3278" xmlns:xlink="http://www.w3.org/1999/xlink" width="200" height="200"><defs><style type="text/css"></style></defs><path d="M399.92 314.06c0 0.8 0 1.6 0.08 2.38v-4.76c0 0.79-0.08 1.58-0.08 2.38zM480 314.06v-0.93V314.06z" fill="#999999" p-id="3279"></path><path d="M802.41 607.28l-1.75-1.6c0.57 0.55 1.15 1.09 1.75 1.6zM853.56 545.68q1.91 1.71 3.78 3.45a39.85 39.85 0 0 0-3.78-3.45z" fill="#8C6239" p-id="3280"></path><path d="M544 64c-132.55 0-240 107.45-240 240s107.45 240 240 240 240-107.45 240-240S676.55 64 544 64z m0 400a160 160 0 1 1 160-160 160 160 0 0 1-160 160z" fill="#999999" p-id="3281"></path><path d="M767.08 523.76c-1.26-0.73-2.54-1.45-3.82-2.17A445.89 445.89 0 0 0 544 464.34c-247.42 0-448 200.58-448 448v7.58c0 1.06 0 2.1 0.13 3.13a40 40 0 0 0 80-2.85v-0.28c0-0.71 0-1.41-0.06-2.11v-5.48c0-203.24 164.76-368 368-368a366.28 366.28 0 0 1 180.42 47.2l2.41 1.38a40 40 0 0 0 40.25-69.16zM893.74 709.49H777.37a34.26 34.26 0 0 0-34.26 34.26v2.59a34.26 34.26 0 0 0 34.26 34.26h29.24L713 874.17 607.44 768.56a35.53 35.53 0 0 0-50.28 0L426.41 899.29a35.57 35.57 0 0 0 0 50.29 35.57 35.57 0 0 0 50.29 0L582.29 844l105.6 105.6a35.55 35.55 0 0 0 50.29 0l118.71-118.72v29.24a34.26 34.26 0 0 0 34.26 34.26h2.59A34.26 34.26 0 0 0 928 860.12V743.75a34.26 34.26 0 0 0-34.26-34.26z" fill="#999999" p-id="3282"></path></svg>